<svg width="101" height="40" viewBox="0 0 101 40" fill="none" xmlns="http://www.w3.org/2000/svg">
<path d="M10.0544 26.7764C10.4339 25.2072 9.57119 23.8551 7.48898 23.1309C5.37993 22.3974 3.61476 22.8776 3.00983 24.4466C2.53025 25.6625 3.00118 26.722 4.48743 27.5996L5.80565 28.3767C6.4691 28.7698 6.69543 29.143 6.5474 29.5545C6.34904 30.0325 5.68374 30.1919 4.88413 29.9138C4.06842 29.6301 3.66042 29.0975 3.77861 28.3871L1.48468 27.7216C1.09317 29.3528 2.06161 30.7777 4.24579 31.5374C6.38166 32.2802 8.32967 31.7373 8.95976 30.135C9.41211 28.9577 8.90819 27.9829 7.43474 27.1037L6.0583 26.2884C5.35481 25.8574 5.17141 25.499 5.32935 25.1091C5.51367 24.6201 6.1955 24.4965 6.90388 24.7429C7.69812 25.0191 8.00337 25.6122 7.91195 26.1756L10.0544 26.7764Z" fill="#089285"/>
<path d="M16.1364 35.0662C18.3903 35.6321 20.1756 34.6749 20.8286 32.7718L18.6133 32.2156C18.2233 33.078 17.4867 33.4318 16.6821 33.2298C15.5855 32.9545 15.1314 31.8626 15.5834 30.2544C16.0294 28.6682 17.001 27.9401 18.0922 28.214C18.9518 28.4299 19.3445 29.1316 19.236 30.0003L21.4514 30.5565C21.898 28.5898 20.7739 26.9432 18.5641 26.3884C15.996 25.7436 13.9123 27.1119 13.188 29.6882C12.47 32.2426 13.5298 34.4118 16.1364 35.0662Z" fill="#089285"/>
<path d="M27.366 37.3732C28.6404 37.5719 29.5624 37.1464 30.1231 36.4117L30.1905 36.4222L29.9824 37.6144L32.2504 37.9679L33.2627 32.1693C33.6203 30.1207 32.0304 28.9874 30.1104 28.6881C28.0444 28.366 26.5139 29.1393 25.9091 30.6549L28.0897 31.1788C28.3522 30.6333 28.9364 30.2932 29.7953 30.4271C30.6093 30.554 31.004 31.0352 30.8809 31.7405L30.875 31.774C30.7783 32.3282 30.1761 32.309 28.6518 32.2209C26.9177 32.1115 25.2855 32.4435 24.9503 34.3633C24.6533 36.0649 25.7211 37.1168 27.366 37.3732ZM28.3382 35.8344C27.6027 35.7198 27.1346 35.2961 27.2489 34.6412C27.3662 33.9695 27.9796 33.7259 28.8422 33.7397C29.377 33.7483 30.2518 33.7582 30.5714 33.6125L30.4121 34.5249C30.2548 35.426 29.388 35.9981 28.3382 35.8344Z" fill="#089285"/>
<path d="M41.1173 27.1032L38.7043 26.9127L37.6796 38.5038L40.0926 38.6943L41.1173 27.1032Z" fill="#089285"/>
<path d="M48.8598 39.2014C50.1495 39.2053 50.9867 38.6453 51.4155 37.8341L51.4837 37.8343L51.4796 39.0445L53.7751 39.0515L53.795 33.1652C53.8021 31.0856 52.0437 30.2053 50.1005 30.1994C48.0096 30.1931 46.6312 31.1889 46.2906 32.7788L48.5286 32.9674C48.6954 32.3883 49.2139 31.9638 50.0832 31.9664C50.907 31.9689 51.3772 32.3851 51.3748 33.101L51.3747 33.1351C51.3728 33.6976 50.7759 33.7696 49.2584 33.9128C47.5306 34.0666 45.9775 34.6415 45.9709 36.5903C45.965 38.3176 47.195 39.1963 48.8598 39.2014ZM49.5586 37.533C48.8143 37.5308 48.2814 37.1826 48.2836 36.5178C48.2859 35.836 48.8496 35.5025 49.7022 35.3857C50.2309 35.3135 51.095 35.1911 51.3854 34.9988L51.3822 35.9249C51.3791 36.8397 50.6211 37.5362 49.5586 37.533Z" fill="#089285"/>
<path d="M59.3782 38.7669L61.7547 38.5503L61.6127 37.1598L61.7202 37.15C62.1279 37.843 62.9404 38.5848 64.3436 38.4569C66.3241 38.2763 67.709 36.5698 67.4124 33.6644C67.1077 30.6799 65.3439 29.346 63.437 29.5198C61.9828 29.6524 61.3751 30.5807 61.1247 31.3167L61.0512 31.3234L60.6069 26.971L58.1964 27.1907L59.3782 38.7669ZM61.2945 34.2107C61.1364 32.662 61.6918 31.613 62.8631 31.5062C64.057 31.3973 64.7963 32.3739 64.9498 33.8775C65.1045 35.3924 64.5667 36.5025 63.3841 36.6103C62.2242 36.7161 61.4526 35.7595 61.2945 34.2107Z" fill="#089285"/>
<path d="M73.1324 25.3176L70.7467 25.7268L72.9412 37.1543L75.3268 36.7452L73.1324 25.3176Z" fill="#089285"/>
<path d="M85.3731 34.687C87.4672 34.1613 88.5935 32.7952 88.4859 31.1533L86.2746 31.5562C86.2176 32.2556 85.7052 32.7415 84.9227 32.938C83.7489 33.2327 82.7881 32.6482 82.436 31.3956L82.4344 31.3901L88.1987 29.9429L88.0188 29.303C87.2162 26.4477 85.078 25.4737 82.8407 26.0355C80.3498 26.6608 79.2287 28.822 79.9576 31.4147C80.7064 34.0785 82.7665 35.3415 85.3731 34.687ZM82.0285 29.9461C81.809 28.9765 82.3267 28.0267 83.3682 27.7652C84.3877 27.5092 85.2961 28.0541 85.583 29.0537L82.0285 29.9461Z" fill="#089285"/>
<path d="M98.4555 23.8168C97.668 22.3894 96.0837 21.8884 94.0014 22.6126C91.8924 23.3461 90.8777 24.7931 91.4934 26.3584C91.9622 27.578 93.0476 28.0963 94.7812 27.854L96.318 27.6382C97.0928 27.531 97.5212 27.6766 97.6907 28.0805C97.8676 28.5661 97.4703 29.095 96.6707 29.3731C95.855 29.6568 95.1789 29.5012 94.7817 28.8879L92.5785 29.7864C93.3993 31.2683 95.1141 31.76 97.2983 31.0004C99.4342 30.2575 100.545 28.6508 99.9257 27.0447C99.4626 25.8712 98.4103 25.4377 96.6853 25.6709L95.0779 25.8933C94.2466 25.996 93.8611 25.8355 93.7139 25.4418C93.5189 24.9566 93.9533 24.4448 94.6617 24.1985C95.4559 23.9222 96.0952 24.1869 96.412 24.6718L98.4555 23.8168Z" fill="#089285"/>
<path d="M44.3607 9.92302C44.3607 12.5306 42.0712 14.6444 39.2469 14.6444C36.4226 14.6444 34.1331 12.5306 34.1331 9.92302C34.1331 7.31545 39.2469 0.480194 39.2469 0.480194C39.2469 0.480194 44.3607 7.31545 44.3607 9.92302Z" fill="#089285"/>
<path d="M66.35 9.92302C66.35 12.5306 64.0605 14.6444 61.2362 14.6444C58.4119 14.6444 56.1224 12.5306 56.1224 9.92302C56.1224 7.31545 61.2362 0.480194 61.2362 0.480194C61.2362 0.480194 66.35 7.31545 66.35 9.92302Z" fill="#089285"/>
<path fill-rule="evenodd" clip-rule="evenodd" d="M36.9458 0.421068C36.9458 0.188519 37.1456 0 37.392 0H63.0915C63.3379 0 63.5376 0.188519 63.5376 0.421068C63.5376 0.653618 63.3379 0.842137 63.0915 0.842137H50.6879V15.6637C50.6879 15.8963 50.4881 16.0848 50.2417 16.0848C49.9953 16.0848 49.7956 15.8963 49.7956 15.6637V0.842137H37.392C37.1456 0.842137 36.9458 0.653618 36.9458 0.421068Z" fill="#F34213"/>
</svg>
